<svg width="22" height="24" viewBox="0 0 22 24" fill="none" xmlns="http://www.w3.org/2000/svg">
<g clip-path="url(#clip0_1_970)">
<path d="M11.0049 6.6094C7.88171 6.6094 5.36252 9.01409 5.36252 11.9953C5.36252 14.9766 7.88171 17.3813 11.0049 17.3813C14.1281 17.3813 16.6473 14.9766 16.6473 11.9953C16.6473 9.01409 14.1281 6.6094 11.0049 6.6094ZM11.0049 15.4969C8.98662 15.4969 7.33662 13.9266 7.33662 11.9953C7.33662 10.0641 8.98171 8.49377 11.0049 8.49377C13.0281 8.49377 14.6732 10.0641 14.6732 11.9953C14.6732 13.9266 13.0232 15.4969 11.0049 15.4969ZM18.1942 6.38909C18.1942 7.08752 17.6049 7.64534 16.8781 7.64534C16.1464 7.64534 15.5621 7.08284 15.5621 6.38909C15.5621 5.69534 16.1513 5.13284 16.8781 5.13284C17.6049 5.13284 18.1942 5.69534 18.1942 6.38909ZM21.9313 7.66409C21.8478 5.98127 21.4451 4.49065 20.1536 3.26252C18.867 2.0344 17.3054 1.65002 15.5424 1.56565C13.7255 1.46721 8.27948 1.46721 6.46252 1.56565C4.70448 1.64534 3.14288 2.02971 1.85136 3.25784C0.559842 4.48596 0.162074 5.97659 0.0736816 7.6594C-0.0294433 9.39377 -0.0294433 14.5922 0.0736816 16.3266C0.157164 18.0094 0.559842 19.5 1.85136 20.7281C3.14288 21.9563 4.69957 22.3406 6.46252 22.425C8.27948 22.5235 13.7255 22.5235 15.5424 22.425C17.3054 22.3453 18.867 21.961 20.1536 20.7281C21.4402 19.5 21.8429 18.0094 21.9313 16.3266C22.0344 14.5922 22.0344 9.39846 21.9313 7.66409ZM19.5839 18.1875C19.2009 19.1063 18.4594 19.8141 17.492 20.1844C16.0433 20.7328 12.6058 20.6063 11.0049 20.6063C9.40403 20.6063 5.96162 20.7281 4.51787 20.1844C3.55538 19.8188 2.81386 19.111 2.42591 18.1875C1.85136 16.8047 1.98395 13.5235 1.98395 11.9953C1.98395 10.4672 1.85627 7.18127 2.42591 5.80315C2.80895 4.8844 3.55046 4.17659 4.51787 3.80627C5.96653 3.25784 9.40403 3.3844 11.0049 3.3844C12.6058 3.3844 16.0482 3.26252 17.492 3.80627C18.4545 4.1719 19.196 4.87971 19.5839 5.80315C20.1585 7.18596 20.0259 10.4672 20.0259 11.9953C20.0259 13.5235 20.1585 16.8094 19.5839 18.1875Z" fill="white"/>
</g>
<defs>
<clipPath id="clip0_1_970">
<rect width="22" height="24" fill="white"/>
</clipPath>
</defs>
</svg>
